# xmcd
#
# Track frame offsets: 
#        182
#        11775
#        24440
#        37462
#        46135
#        59805
#        75460
#        89537
#        102170
#        113652
#        125282
#        135692
#        147927
#        160125
#        169845
#        181345
#        196705
#        208522
#
# Disc length: 2958 seconds
#
# Revision: 5
# Processed by: cddbd v1.5.2PL0 Copyright (c) Steve Scherf et al.
# Submitted via: ExactAudioCopyFreeDBPlugin 1.0
#
DISCID=f60b8c12
DTITLE=Sonny Boy Williamson II - Nine Below Zero - The Blues Collectio
DTITLE=n 10
DYEAR=1992
DGENRE=Blues
TTITLE0=Don't start me talkin'
TTITLE1=All my love in vain
TTITLE2=Let me explain
TTITLE3=Checkin' up on my baby
TTITLE4=Lonesome cabin
TTITLE5=Nine below zero
TTITLE6=Help me
TTITLE7=Keep it to yourself
TTITLE8=The key (to your door)
TTITLE9=Bring it on home
TTITLE10=Let your conscience be your guide
TTITLE11=The goat
TTITLE12=Trust my baby
TTITLE13=Too close together
TTITLE14=Born blind
TTITLE15=Decoration day
TTITLE16=Ninety nine
TTITLE17=It's sad to be alone
EXTD=YEAR: 1992
EXTT0=
EXTT1=
EXTT2=
EXTT3=
EXTT4=
EXTT5=
EXTT6=
EXTT7=
EXTT8=
EXTT9=
EXTT10=
EXTT11=
EXTT12=
EXTT13=
EXTT14=
EXTT15=
EXTT16=
EXTT17=
PLAYORDER=
